<svg width="68" height="61" xmlns="http://www.w3.org/2000/svg"><g fill="none" fill-rule="evenodd"><rect fill="#00899B" width="68" height="60.516" rx="6.6"/><path d="M27.002 38.909v-1.09s3.643-.888 7.285-.888c3.643 0 7.286.888 7.286.888v1.09s0 6.172-7.286 6.172c-7.285 0-7.285-6.172-7.285-6.172zm24.08-17.442l4.055 2.02c.9.449 1.265 1.54.815 2.436a1.824 1.824 0 0 1-2.444.812l-7.286-3.631c-1.342-.669-1.342-2.579 0-3.248l7.286-3.63a1.824 1.824 0 0 1 2.444.811c.45.897.085 1.988-.815 2.436l-4.055 1.994zm-33.59 0l-4.055 2.02a1.813 1.813 0 0 0-.814 2.436 1.824 1.824 0 0 0 2.443.812l7.286-3.631c1.343-.669 1.343-2.579 0-3.248l-7.286-3.63a1.824 1.824 0 0 0-2.443.811 1.813 1.813 0 0 0 .814 2.436l4.055 1.994z" fill="#FFF" fill-rule="nonzero"/></g></svg>