<?xml version="1.0" encoding="utf-8"?>
<!-- Generator: Adobe Illustrator 16.0.0, SVG Export Plug-In . SVG Version: 6.00 Build 0)  -->
<!DOCTYPE svg PUBLIC "-//W3C//DTD SVG 1.0//EN" "http://www.w3.org/TR/2001/REC-SVG-20010904/DTD/svg10.dtd">
<svg version="1.0" id="Isolation_Mode" xmlns="http://www.w3.org/2000/svg" xmlns:xlink="http://www.w3.org/1999/xlink" x="0px"
	 y="0px" width="200px" height="154px" viewBox="0 0 200 154" enable-background="new 0 0 200 154" xml:space="preserve">
<path id="path5" stroke="#000000" stroke-width="4" stroke-miterlimit="10" d="M186.251,24.822
	c-6.31,2.799-13.092,4.689-20.209,5.54c7.265-4.354,12.845-11.249,15.471-19.466c-6.799,4.032-14.329,6.96-22.345,8.538
	c-6.417-6.839-15.562-11.111-25.683-11.111c-19.432,0-35.187,15.754-35.187,35.186c0,2.758,0.311,5.443,0.911,8.019
	c-29.243-1.467-55.17-15.476-72.524-36.764c-3.029,5.196-4.765,11.24-4.765,17.688c0,12.208,6.212,22.978,15.653,29.287
	c-5.768-0.183-11.194-1.766-15.938-4.4c-0.004,0.146-0.004,0.294-0.004,0.442c0,17.048,12.129,31.269,28.226,34.503
	c-2.952,0.804-6.061,1.233-9.27,1.233c-2.268,0-4.472-0.221-6.62-0.631c4.478,13.979,17.472,24.151,32.87,24.435
	c-12.043,9.438-27.214,15.063-43.7,15.063c-2.84,0-5.641-0.167-8.394-0.492c15.572,9.984,34.067,15.81,53.938,15.81
	c64.721,0,100.113-53.615,100.113-100.114c0-1.525-0.034-3.043-0.102-4.553C175.569,38.075,181.534,31.879,186.251,24.822
	L186.251,24.822z"/>
</svg>
