<?xml version="1.0" encoding="utf-8"?>
<!-- Generator: Adobe Illustrator 16.0.0, SVG Export Plug-In . SVG Version: 6.00 Build 0)  -->
<!DOCTYPE svg PUBLIC "-//W3C//DTD SVG 1.1//EN" "http://www.w3.org/Graphics/SVG/1.1/DTD/svg11.dtd">
<svg version="1.1" id="Layer_1" xmlns="http://www.w3.org/2000/svg" xmlns:xlink="http://www.w3.org/1999/xlink" x="0px" y="0px"
	 width="63px" height="91px" viewBox="42.5 29.167 63 91" enable-background="new 42.5 29.167 63 91" xml:space="preserve">
<g>
	<g>
		<path d="M68.229,40.789c-0.875-2.257-1.967-6.003-4.02-7.008c-1.618-0.791-3.189-0.057-3.792,1.034
			c-1.579,2.86,0.042,7.607,0.92,10.452c2.149,6.977,4.999,14.344,7.237,20.561c1.584-1.272,5.474-0.827,8.269-0.574
			C74.227,57.444,71.302,48.698,68.229,40.789z M99.702,46.302c0.812-2.575,2.124-4.738,1.836-7.695
			c-0.175-1.829-1.267-3.327-3.099-3.217c-2.799,0.168-4.365,4.429-5.283,6.662c-3.227,7.842-5.969,16.267-8.385,24.122
			c2.746,0.278,5.147,0.899,7.811,1.263C94.961,61.207,97.482,53.354,99.702,46.302z M60.074,102.814
			c1.978,0.66,4.611,0.146,4.939-1.725c0.325-1.857-1.296-3.611-1.839-4.479c-2.051-3.286-3.201-4.756-5.742-7.353
			c-1.008-1.03-2.419-2.626-3.905-2.757c-2.428-0.214-4.373,2.361-5.17,3.791c-2.289,4.113-0.15,9.749,1.837,12.979
			c4.702,7.638,12.25,13.855,24.237,13.783c10.155-0.062,17.09-5.176,21.48-10.566c4.862-5.973,7.767-14.551,7.12-24.926
			c-0.121-1.955-0.402-4.107-1.494-5.858c-1.842-2.96-7.239-4.242-11.943-5.283c-2.236-0.494-4.773-0.866-7.466-1.148
			c-3.565-0.371-9.64-1.379-11.258,0.689c-1.404,1.795-0.238,4.648,0.46,5.742c2.57,4.03,10.161,4.595,16.654,4.595
			c3.361,0,8.008-0.76,7.468,2.528c-0.247,1.497-3.99,2.354-5.858,3.101c-2.117,0.846-4.144,2.225-5.514,3.445
			c-2.631,2.348-6.197,6.49-6.547,11.371c-0.33,4.594,2.068,5.869,1.605,10.566c-4.91-0.906-5.552-6.084-5.855-11.6
			c-1.127,0.506-2.751,0.559-4.135,0.229c1.896,6.916-5.104,9.461-10.225,7.008c-2.007-0.961-4.085-2.885-5.627-4.938
			c-1.632-2.173-3.268-5.157-1.609-7.694C54.307,96.572,56.082,101.479,60.074,102.814z M55.71,76.626
			c-0.177,2.21,1.589,4.776,2.412,6.203c2.197,3.808,4.54,6.836,7.466,9.763c1.313,1.312,3.413,3.469,5.515,3.217
			c1.027-0.123,2.333-1.396,2.525-2.526c0.348-2.03-1.112-4.573-1.838-6.318c-1.573-3.782-3.645-7.666-5.742-10.567
			c-1.419-1.96-3.156-4.373-5.857-4.134C58.47,72.412,55.88,74.489,55.71,76.626z M77.419,90.41
			c1.921-2.215,4.127-4.145,6.433-5.973c-3.515-0.086-6.787-1.023-9.419-1.608C75.607,85.175,76.581,87.727,77.419,90.41z"/>
	</g>
</g>
</svg>
